<svg xmlns="http://www.w3.org/2000/svg" width="1440" height="900"><path d="M841,467L941,478L961,284Z" fill="#62b966" stroke="#62b966" stroke-width="1.51"/><path d="M961,284L810,308L841,467Z" fill="#67bb6a" stroke="#67bb6a" stroke-width="1.51"/><path d="M1173,414L1137,242L961,284Z" fill="#63b965" stroke="#63b965" stroke-width="1.51"/><path d="M770,623L1009,584L941,478Z" fill="#5ab55d" stroke="#5ab55d" stroke-width="1.51"/><path d="M1173,414L961,284L941,478Z" fill="#5fb863" stroke="#5fb863" stroke-width="1.51"/><path d="M961,284L771,126L810,308Z" fill="#6fbf72" stroke="#6fbf72" stroke-width="1.51"/><path d="M1009,584L1173,414L941,478Z" fill="#58b55c" stroke="#58b55c" stroke-width="1.51"/><path d="M810,308L626,420L841,467Z" fill="#68bc6c" stroke="#68bc6c" stroke-width="1.51"/><path d="M841,467L770,623L941,478Z" fill="#5eb762" stroke="#5eb762" stroke-width="1.51"/><path d="M626,420L770,623L841,467Z" fill="#62b966" stroke="#62b966" stroke-width="1.51"/><path d="M810,308L645,241L626,420Z" fill="#6fbf72" stroke="#6fbf72" stroke-width="1.51"/><path d="M1018,93L771,126L961,284Z" fill="#72c074" stroke="#72c074" stroke-width="1.51"/><path d="M771,126L645,241L810,308Z" fill="#73c176" stroke="#73c176" stroke-width="1.51"/><path d="M1137,242L1018,93L961,284Z" fill="#6bbc6d" stroke="#6bbc6d" stroke-width="1.51"/><path d="M771,126L630,142L645,241Z" fill="#7ac47d" stroke="#7ac47d" stroke-width="1.51"/><path d="M429,244L429,475L626,420Z" fill="#73c176" stroke="#73c176" stroke-width="1.51"/><path d="M643,-60L630,142L771,126Z" fill="#82c784" stroke="#82c784" stroke-width="1.51"/><path d="M1322,143L1118,87L1137,242Z" fill="#6cbb6e" stroke="#6cbb6e" stroke-width="1.51"/><path d="M1137,242L1118,87L1018,93Z" fill="#6fbe71" stroke="#6fbe71" stroke-width="1.51"/><path d="M1009,584L1180,625L1173,414Z" fill="#54b158" stroke="#54b158" stroke-width="1.51"/><path d="M952,776L1180,625L1009,584Z" fill="#4fb052" stroke="#4fb052" stroke-width="1.51"/><path d="M429,475L594,597L626,420Z" fill="#6abd6d" stroke="#6abd6d" stroke-width="1.51"/><path d="M626,420L594,597L770,623Z" fill="#63ba67" stroke="#63ba67" stroke-width="1.51"/><path d="M793,767L952,776L770,623Z" fill="#54b158" stroke="#54b158" stroke-width="1.51"/><path d="M770,623L952,776L1009,584Z" fill="#54b357" stroke="#54b357" stroke-width="1.51"/><path d="M630,756L793,767L770,623Z" fill="#58b35c" stroke="#58b35c" stroke-width="1.51"/><path d="M950,-88L804,-50L1018,93Z" fill="#80c581" stroke="#80c581" stroke-width="1.51"/><path d="M1018,93L804,-50L771,126Z" fill="#7dc47f" stroke="#7dc47f" stroke-width="1.51"/><path d="M1173,414L1341,292L1137,242Z" fill="#60b563" stroke="#60b563" stroke-width="1.51"/><path d="M1344,586L1344,416L1173,414Z" fill="#56b059" stroke="#56b059" stroke-width="1.51"/><path d="M1344,416L1341,292L1173,414Z" fill="#5cb25f" stroke="#5cb25f" stroke-width="1.51"/><path d="M1176,-77L950,-88L1018,93Z" fill="#7cc37c" stroke="#7cc37c" stroke-width="1.51"/><path d="M1176,-77L1018,93L1118,87Z" fill="#78c178" stroke="#78c178" stroke-width="1.51"/><path d="M594,597L630,756L770,623Z" fill="#5cb760" stroke="#5cb760" stroke-width="1.51"/><path d="M1341,292L1322,143L1137,242Z" fill="#65b768" stroke="#65b768" stroke-width="1.51"/><path d="M429,244L626,420L645,241Z" fill="#75c278" stroke="#75c278" stroke-width="1.51"/><path d="M594,597L449,661L630,756Z" fill="#60b863" stroke="#60b863" stroke-width="1.51"/><path d="M1180,625L1344,586L1173,414Z" fill="#52af56" stroke="#52af56" stroke-width="1.51"/><path d="M1361,806L1344,586L1180,625Z" fill="#49aa4d" stroke="#49aa4d" stroke-width="1.51"/><path d="M630,142L429,244L645,241Z" fill="#7bc47d" stroke="#7bc47d" stroke-width="1.51"/><path d="M443,79L429,244L630,142Z" fill="#82c784" stroke="#82c784" stroke-width="1.51"/><path d="M804,-50L643,-60L771,126Z" fill="#86c887" stroke="#86c887" stroke-width="1.51"/><path d="M628,-227L643,-60L804,-50Z" fill="#87c989" stroke="#87c989" stroke-width="1.51"/><path d="M952,776L1149,819L1180,625Z" fill="#4bac4e" stroke="#4bac4e" stroke-width="1.51"/><path d="M980,976L1149,819L952,776Z" fill="#4baa4e" stroke="#4baa4e" stroke-width="1.51"/><path d="M980,976L952,776L805,1001Z" fill="#4eaa51" stroke="#4eaa51" stroke-width="1.51"/><path d="M1322,143L1176,-77L1118,87Z" fill="#75bf76" stroke="#75bf76" stroke-width="1.51"/><path d="M429,475L449,661L594,597Z" fill="#68bc6b" stroke="#68bc6b" stroke-width="1.51"/><path d="M643,-60L443,79L630,142Z" fill="#88c98a" stroke="#88c98a" stroke-width="1.51"/><path d="M1341,292L1474,310L1322,143Z" fill="#63b465" stroke="#63b465" stroke-width="1.51"/><path d="M1322,143L1287,-105L1176,-77Z" fill="#79bf79" stroke="#79bf79" stroke-width="1.51"/><path d="M1344,416L1474,310L1341,292Z" fill="#5db15f" stroke="#5db15f" stroke-width="1.51"/><path d="M1520,410L1474,310L1344,416Z" fill="#5aaf5c" stroke="#5aaf5c" stroke-width="1.51"/><path d="M429,244L323,303L429,475Z" fill="#79c47c" stroke="#79c47c" stroke-width="1.51"/><path d="M429,475L270,606L449,661Z" fill="#6cbd6f" stroke="#6cbd6f" stroke-width="1.51"/><path d="M280,112L323,303L429,244Z" fill="#82c785" stroke="#82c785" stroke-width="1.51"/><path d="M662,954L793,767L630,756Z" fill="#57b05b" stroke="#57b05b" stroke-width="1.51"/><path d="M805,1001L952,776L793,767Z" fill="#51ad55" stroke="#51ad55" stroke-width="1.51"/><path d="M980,976L1156,929L1149,819Z" fill="#47a74b" stroke="#47a74b" stroke-width="1.51"/><path d="M1149,819L1361,806L1180,625Z" fill="#49a94c" stroke="#49a94c" stroke-width="1.51"/><path d="M1176,-77L985,-245L950,-88Z" fill="#7dc37d" stroke="#7dc37d" stroke-width="1.51"/><path d="M1492,-40L1287,-105L1322,143Z" fill="#78bd78" stroke="#78bd78" stroke-width="1.51"/><path d="M449,661L443,789L630,756Z" fill="#61b764" stroke="#61b764" stroke-width="1.51"/><path d="M316,759L443,789L449,661Z" fill="#65b968" stroke="#65b968" stroke-width="1.51"/><path d="M1474,310L1518,98L1322,143Z" fill="#67b568" stroke="#67b568" stroke-width="1.51"/><path d="M1344,586L1520,410L1344,416Z" fill="#54ae58" stroke="#54ae58" stroke-width="1.51"/><path d="M1481,629L1520,410L1344,586Z" fill="#50ab53" stroke="#50ab53" stroke-width="1.51"/><path d="M443,79L280,112L429,244Z" fill="#87c989" stroke="#87c989" stroke-width="1.51"/><path d="M643,-60L471,-70L443,79Z" fill="#8ecc90" stroke="#8ecc90" stroke-width="1.51"/><path d="M628,-227L471,-70L643,-60Z" fill="#8ccb8d" stroke="#8ccb8d" stroke-width="1.51"/><path d="M814,-271L804,-50L950,-88Z" fill="#82c683" stroke="#82c683" stroke-width="1.51"/><path d="M323,303L284,447L429,475Z" fill="#77c37a" stroke="#77c37a" stroke-width="1.51"/><path d="M443,789L662,954L630,756Z" fill="#5cb25f" stroke="#5cb25f" stroke-width="1.51"/><path d="M1160,-242L985,-245L1176,-77Z" fill="#7bc27b" stroke="#7bc27b" stroke-width="1.51"/><path d="M1156,929L1361,806L1149,819Z" fill="#46a64a" stroke="#46a64a" stroke-width="1.51"/><path d="M1361,806L1481,629L1344,586Z" fill="#48a84c" stroke="#48a84c" stroke-width="1.51"/><path d="M662,954L805,1001L793,767Z" fill="#54ad57" stroke="#54ad57" stroke-width="1.51"/><path d="M985,-245L814,-271L950,-88Z" fill="#80c581" stroke="#80c581" stroke-width="1.51"/><path d="M814,-271L628,-227L804,-50Z" fill="#86c887" stroke="#86c887" stroke-width="1.51"/><path d="M985,-245L1336,-280L814,-271Z" fill="#7dc37d" stroke="#7dc37d" stroke-width="1.51"/><path d="M1287,-105L1160,-242L1176,-77Z" fill="#7ac07a" stroke="#7ac07a" stroke-width="1.51"/><path d="M284,447L270,606L429,475Z" fill="#72c075" stroke="#72c075" stroke-width="1.51"/><path d="M323,303L153,410L284,447Z" fill="#7dc57f" stroke="#7dc57f" stroke-width="1.51"/><path d="M284,447L153,410L270,606Z" fill="#79c37b" stroke="#79c37b" stroke-width="1.51"/><path d="M281,-95L280,112L443,79Z" fill="#92ce94" stroke="#92ce94" stroke-width="1.51"/><path d="M281,-95L443,79L471,-70Z" fill="#92ce94" stroke="#92ce94" stroke-width="1.51"/><path d="M1705,303L1518,98L1474,310Z" fill="#63b365" stroke="#63b365" stroke-width="1.51"/><path d="M1287,-105L1336,-280L1160,-242Z" fill="#79bf79" stroke="#79bf79" stroke-width="1.51"/><path d="M270,606L316,759L449,661Z" fill="#69bc6b" stroke="#69bc6b" stroke-width="1.51"/><path d="M443,789L456,996L662,954Z" fill="#5db15f" stroke="#5db15f" stroke-width="1.51"/><path d="M1518,98L1492,-40L1322,143Z" fill="#71b972" stroke="#71b972" stroke-width="1.51"/><path d="M1517,998L1511,796L1361,806Z" fill="#43a147" stroke="#43a147" stroke-width="1.51"/><path d="M980,976L1012,1104L1156,929Z" fill="#48a84c" stroke="#48a84c" stroke-width="1.51"/><path d="M805,1001L1012,1104L980,976Z" fill="#4daa51" stroke="#4daa51" stroke-width="1.51"/><path d="M787,1116L1012,1104L805,1001Z" fill="#50ab53" stroke="#50ab53" stroke-width="1.51"/><path d="M1361,806L1511,796L1481,629Z" fill="#46a54a" stroke="#46a54a" stroke-width="1.51"/><path d="M1709,587L1676,424L1520,410Z" fill="#53ad57" stroke="#53ad57" stroke-width="1.51"/><path d="M1320,1003L1361,806L1156,929Z" fill="#45a349" stroke="#45a349" stroke-width="1.51"/><path d="M657,1109L787,1116L805,1001Z" fill="#54ad57" stroke="#54ad57" stroke-width="1.51"/><path d="M657,1109L805,1001L662,954Z" fill="#55ad59" stroke="#55ad59" stroke-width="1.51"/><path d="M270,606L109,635L316,759Z" fill="#6fbe71" stroke="#6fbe71" stroke-width="1.51"/><path d="M145,254L153,410L323,303Z" fill="#84c886" stroke="#84c886" stroke-width="1.51"/><path d="M1116,1166L1320,1003L1156,929Z" fill="#46a54a" stroke="#46a54a" stroke-width="1.51"/><path d="M259,997L456,996L443,789Z" fill="#62b364" stroke="#62b364" stroke-width="1.51"/><path d="M280,112L145,254L323,303Z" fill="#87ca89" stroke="#87ca89" stroke-width="1.51"/><path d="M456,996L657,1109L662,954Z" fill="#5aaf5d" stroke="#5aaf5d" stroke-width="1.51"/><path d="M1520,410L1705,303L1474,310Z" fill="#5cb05f" stroke="#5cb05f" stroke-width="1.51"/><path d="M1518,98L1668,-36L1492,-40Z" fill="#76bb76" stroke="#76bb76" stroke-width="1.51"/><path d="M1709,587L1520,410L1481,629Z" fill="#50ab53" stroke="#50ab53" stroke-width="1.51"/><path d="M628,-227L424,-236L471,-70Z" fill="#8ecc90" stroke="#8ecc90" stroke-width="1.51"/><path d="M280,112L144,126L145,254Z" fill="#8fcd90" stroke="#8fcd90" stroke-width="1.51"/><path d="M814,-271L424,-236L628,-227Z" fill="#8aca8c" stroke="#8aca8c" stroke-width="1.51"/><path d="M308,-203L281,-95L471,-70Z" fill="#94cf96" stroke="#94cf96" stroke-width="1.51"/><path d="M1464,-248L1336,-280L1287,-105Z" fill="#78bd78" stroke="#78bd78" stroke-width="1.51"/><path d="M1160,-242L1336,-280L985,-245Z" fill="#7ac17a" stroke="#7ac17a" stroke-width="1.51"/><path d="M127,-42L144,126L280,112Z" fill="#97d099" stroke="#97d099" stroke-width="1.51"/><path d="M1676,424L1705,303L1520,410Z" fill="#5aaf5c" stroke="#5aaf5c" stroke-width="1.51"/><path d="M1012,1104L1116,1166L1156,929Z" fill="#47a74b" stroke="#47a74b" stroke-width="1.51"/><path d="M787,1116L1116,1166L1012,1104Z" fill="#4ca94f" stroke="#4ca94f" stroke-width="1.51"/><path d="M469,1130L1116,1166L787,1116Z" fill="#52ac56" stroke="#52ac56" stroke-width="1.51"/><path d="M281,-95L127,-42L280,112Z" fill="#9ad19c" stroke="#9ad19c" stroke-width="1.51"/><path d="M424,-236L308,-203L471,-70Z" fill="#92ce94" stroke="#92ce94" stroke-width="1.51"/><path d="M1492,-40L1464,-248L1287,-105Z" fill="#77bc77" stroke="#77bc77" stroke-width="1.51"/><path d="M1705,303L1697,128L1518,98Z" fill="#68b569" stroke="#68b569" stroke-width="1.51"/><path d="M153,410L109,635L270,606Z" fill="#79c37a" stroke="#79c37a" stroke-width="1.51"/><path d="M259,997L469,1130L456,996Z" fill="#62b364" stroke="#62b364" stroke-width="1.51"/><path d="M-83,448L109,635L153,410Z" fill="#81c683" stroke="#81c683" stroke-width="1.51"/><path d="M-52,267L153,410L145,254Z" fill="#8acb8c" stroke="#8acb8c" stroke-width="1.51"/><path d="M1676,767L1709,587L1481,629Z" fill="#48a84c" stroke="#48a84c" stroke-width="1.51"/><path d="M1676,424L1808,418L1705,303Z" fill="#59af5c" stroke="#59af5c" stroke-width="1.51"/><path d="M1676,767L1481,629L1511,796Z" fill="#46a54a" stroke="#46a54a" stroke-width="1.51"/><path d="M1668,-36L1464,-248L1492,-40Z" fill="#77bb77" stroke="#77bb77" stroke-width="1.51"/><path d="M1320,1003L1517,998L1361,806Z" fill="#43a147" stroke="#43a147" stroke-width="1.51"/><path d="M1116,1166L1325,1131L1320,1003Z" fill="#45a449" stroke="#45a449" stroke-width="1.51"/><path d="M1673,974L1676,767L1511,796Z" fill="#44a248" stroke="#44a248" stroke-width="1.51"/><path d="M456,996L469,1130L657,1109Z" fill="#5db05f" stroke="#5db05f" stroke-width="1.51"/><path d="M657,1109L469,1130L787,1116Z" fill="#58af5b" stroke="#58af5b" stroke-width="1.51"/><path d="M259,997L443,789L316,759Z" fill="#65b567" stroke="#65b567" stroke-width="1.51"/><path d="M1697,128L1668,-36L1518,98Z" fill="#71b972" stroke="#71b972" stroke-width="1.51"/><path d="M1507,1138L1517,998L1320,1003Z" fill="#43a047" stroke="#43a047" stroke-width="1.51"/><path d="M144,126L-52,267L145,254Z" fill="#90ce92" stroke="#90ce92" stroke-width="1.51"/><path d="M81,-258L127,-42L281,-95Z" fill="#9dd39f" stroke="#9dd39f" stroke-width="1.51"/><path d="M97,800L259,997L316,759Z" fill="#6cb86d" stroke="#6cb86d" stroke-width="1.51"/><path d="M1705,303L1819,142L1697,128Z" fill="#67b468" stroke="#67b468" stroke-width="1.51"/><path d="M1697,128L1819,142L1668,-36Z" fill="#70b871" stroke="#70b871" stroke-width="1.51"/><path d="M1709,587L1808,418L1676,424Z" fill="#53ad57" stroke="#53ad57" stroke-width="1.51"/><path d="M1875,587L1808,418L1709,587Z" fill="#50ab54" stroke="#50ab54" stroke-width="1.51"/><path d="M109,635L97,800L316,759Z" fill="#71bd72" stroke="#71bd72" stroke-width="1.51"/><path d="M-56,618L97,800L109,635Z" fill="#79c179" stroke="#79c179" stroke-width="1.51"/><path d="M1856,289L1819,142L1705,303Z" fill="#62b364" stroke="#62b364" stroke-width="1.51"/><path d="M1808,418L1856,289L1705,303Z" fill="#5cb05f" stroke="#5cb05f" stroke-width="1.51"/><path d="M-85,70L-52,267L144,126Z" fill="#99d19b" stroke="#99d19b" stroke-width="1.51"/><path d="M259,997L271,1166L469,1130Z" fill="#65b467" stroke="#65b467" stroke-width="1.51"/><path d="M97,800L152,989L259,997Z" fill="#6db76e" stroke="#6db76e" stroke-width="1.51"/><path d="M1325,1131L1507,1138L1320,1003Z" fill="#43a147" stroke="#43a147" stroke-width="1.51"/><path d="M1517,998L1673,974L1511,796Z" fill="#43a047" stroke="#43a047" stroke-width="1.51"/><path d="M1116,1166L1507,1138L1325,1131Z" fill="#44a248" stroke="#44a248" stroke-width="1.51"/><path d="M1676,767L1875,587L1709,587Z" fill="#49a84d" stroke="#49a84d" stroke-width="1.51"/><path d="M1808,418L1875,587L1856,289Z" fill="#56ae59" stroke="#56ae59" stroke-width="1.51"/><path d="M1658,1156L1673,974L1517,998Z" fill="#43a047" stroke="#43a047" stroke-width="1.51"/><path d="M97,800L-80,986L152,989Z" fill="#73ba74" stroke="#73ba74" stroke-width="1.51"/><path d="M-52,267L-83,448L153,410Z" fill="#8acb8c" stroke="#8acb8c" stroke-width="1.51"/><path d="M-83,448L-56,618L109,635Z" fill="#81c682" stroke="#81c682" stroke-width="1.51"/><path d="M1869,826L1875,587L1676,767Z" fill="#46a64a" stroke="#46a64a" stroke-width="1.51"/><path d="M152,989L271,1166L259,997Z" fill="#6bb66c" stroke="#6bb66c" stroke-width="1.51"/><path d="M469,1130L271,1166L1116,1166Z" fill="#59af5c" stroke="#59af5c" stroke-width="1.51"/><path d="M1880,-108L1710,-236L1668,-36Z" fill="#77bb77" stroke="#77bb77" stroke-width="1.51"/><path d="M1668,-36L1710,-236L1464,-248Z" fill="#77bb77" stroke="#77bb77" stroke-width="1.51"/><path d="M1464,-248L1710,-236L1336,-280Z" fill="#77bb77" stroke="#77bb77" stroke-width="1.51"/><path d="M-52,267L-265,303L-83,448Z" fill="#8dcc8f" stroke="#8dcc8f" stroke-width="1.51"/><path d="M127,-42L-85,70L144,126Z" fill="#9ed3a0" stroke="#9ed3a0" stroke-width="1.51"/><path d="M-34,-107L-85,70L127,-42Z" fill="#a5d6a7" stroke="#a5d6a7" stroke-width="1.51"/><path d="M308,-203L81,-258L281,-95Z" fill="#9ad29c" stroke="#9ad29c" stroke-width="1.51"/><path d="M424,-236L81,-258L308,-203Z" fill="#98d19a" stroke="#98d19a" stroke-width="1.51"/><path d="M814,-271L81,-258L424,-236Z" fill="#90cd92" stroke="#90cd92" stroke-width="1.51"/><path d="M81,-258L-34,-107L127,-42Z" fill="#a2d5a4" stroke="#a2d5a4" stroke-width="1.51"/><path d="M1673,974L1869,826L1676,767Z" fill="#44a148" stroke="#44a148" stroke-width="1.51"/><path d="M1862,997L1869,826L1673,974Z" fill="#43a047" stroke="#43a047" stroke-width="1.51"/><path d="M-236,616L-91,795L-56,618Z" fill="#7bc37b" stroke="#7bc37b" stroke-width="1.51"/><path d="M-56,618L-91,795L97,800Z" fill="#7ac17a" stroke="#7ac17a" stroke-width="1.51"/><path d="M152,989L79,1104L271,1166Z" fill="#6eb76f" stroke="#6eb76f" stroke-width="1.51"/><path d="M-236,616L-56,618L-83,448Z" fill="#81c682" stroke="#81c682" stroke-width="1.51"/><path d="M1116,1166L1658,1156L1507,1138Z" fill="#43a047" stroke="#43a047" stroke-width="1.51"/><path d="M1507,1138L1658,1156L1517,998Z" fill="#43a047" stroke="#43a047" stroke-width="1.51"/><path d="M1819,142L1880,-108L1668,-36Z" fill="#77bb77" stroke="#77bb77" stroke-width="1.51"/><path d="M1856,289L1880,-108L1819,142Z" fill="#6db76e" stroke="#6db76e" stroke-width="1.51"/><path d="M1875,587L1880,-108L1856,289Z" fill="#61b263" stroke="#61b263" stroke-width="1.51"/><path d="M-80,986L79,1104L152,989Z" fill="#74ba74" stroke="#74ba74" stroke-width="1.51"/><path d="M-85,70L-208,108L-52,267Z" fill="#9ad19b" stroke="#9ad19b" stroke-width="1.51"/><path d="M-204,-88L-208,108L-85,70Z" fill="#a3d5a4" stroke="#a3d5a4" stroke-width="1.51"/><path d="M-204,-88L-85,70L-34,-107Z" fill="#a5d6a7" stroke="#a5d6a7" stroke-width="1.51"/><path d="M1658,1156L1862,997L1673,974Z" fill="#43a047" stroke="#43a047" stroke-width="1.51"/><path d="M-242,994L-80,986L-91,795Z" fill="#77bb77" stroke="#77bb77" stroke-width="1.51"/><path d="M-91,795L-80,986L97,800Z" fill="#78bd78" stroke="#78bd78" stroke-width="1.51"/><path d="M1880,-108L1877,-250L1710,-236Z" fill="#77bb77" stroke="#77bb77" stroke-width="1.51"/><path d="M1710,-236L1877,-250L1336,-280Z" fill="#77bb77" stroke="#77bb77" stroke-width="1.51"/><path d="M-265,469L-236,616L-83,448Z" fill="#83c785" stroke="#83c785" stroke-width="1.51"/><path d="M-208,108L-265,303L-52,267Z" fill="#93cf95" stroke="#93cf95" stroke-width="1.51"/><path d="M-265,303L-265,469L-83,448Z" fill="#89ca8b" stroke="#89ca8b" stroke-width="1.51"/><path d="M81,-258L-98,-239L-34,-107Z" fill="#a5d6a7" stroke="#a5d6a7" stroke-width="1.51"/><path d="M-98,-239L-204,-88L-34,-107Z" fill="#a5d6a7" stroke="#a5d6a7" stroke-width="1.51"/><path d="M-208,108L-236,-203L-265,303Z" fill="#a0d4a1" stroke="#a0d4a1" stroke-width="1.51"/><path d="M-265,469L-228,785L-236,616Z" fill="#7ec47e" stroke="#7ec47e" stroke-width="1.51"/><path d="M-236,616L-228,785L-91,795Z" fill="#7ac17a" stroke="#7ac17a" stroke-width="1.51"/><path d="M-80,986L-54,1134L79,1104Z" fill="#77bb77" stroke="#77bb77" stroke-width="1.51"/><path d="M79,1104L-54,1134L271,1166Z" fill="#71b972" stroke="#71b972" stroke-width="1.51"/><path d="M-242,994L-54,1134L-80,986Z" fill="#77bb77" stroke="#77bb77" stroke-width="1.51"/><path d="M1658,1156L1858,1170L1862,997Z" fill="#43a047" stroke="#43a047" stroke-width="1.51"/><path d="M1862,997L1858,1170L1869,826Z" fill="#43a047" stroke="#43a047" stroke-width="1.51"/><path d="M1116,1166L1858,1170L1658,1156Z" fill="#43a047" stroke="#43a047" stroke-width="1.51"/><path d="M271,1166L1858,1170L1116,1166Z" fill="#47a74b" stroke="#47a74b" stroke-width="1.51"/><path d="M-204,-88L-236,-203L-208,108Z" fill="#a5d6a7" stroke="#a5d6a7" stroke-width="1.51"/><path d="M-98,-239L-236,-203L-204,-88Z" fill="#a5d6a7" stroke="#a5d6a7" stroke-width="1.51"/><path d="M-228,785L-242,994L-91,795Z" fill="#78bd78" stroke="#78bd78" stroke-width="1.51"/><path d="M-265,469L-242,994L-228,785Z" fill="#7ac07a" stroke="#7ac07a" stroke-width="1.51"/><path d="M-265,469L-262,1142L-242,994Z" fill="#77bc77" stroke="#77bc77" stroke-width="1.51"/><path d="M-242,994L-262,1142L-54,1134Z" fill="#77bb77" stroke="#77bb77" stroke-width="1.51"/><path d="M-54,1134L-262,1142L271,1166Z" fill="#77bb77" stroke="#77bb77" stroke-width="1.51"/></svg>